<svg xmlns="http://www.w3.org/2000/svg" width="25" height="25" fill="none" viewBox="0 0 25 25"><g clip-path="url(#clip0_2848_534)"><path fill="#607B96" d="M12.9771 2.27832C7.45205 2.27832 2.97705 6.75332 2.97705 12.2783C2.97592 14.3776 3.63587 16.4239 4.86327 18.127C6.09067 19.8301 7.8232 21.1034 9.81505 21.7663C10.3151 21.8533 10.5021 21.5533 10.5021 21.2903C10.5021 21.0533 10.4891 20.2663 10.4891 19.4283C7.97705 19.8913 7.32705 18.8163 7.12705 18.2533C7.01405 17.9653 6.52705 17.0783 6.10205 16.8403C5.75205 16.6533 5.25205 16.1903 6.08905 16.1783C6.87705 16.1653 7.43905 16.9033 7.62705 17.2033C8.52705 18.7153 9.96505 18.2903 10.5391 18.0283C10.6271 17.3783 10.8891 16.9413 11.1771 16.6913C8.95205 16.4413 6.62705 15.5783 6.62705 11.7533C6.62705 10.6653 7.01405 9.76632 7.65205 9.06532C7.55205 8.81532 7.20205 7.79032 7.75205 6.41532C7.75205 6.41532 8.58905 6.15332 10.5021 7.44132C11.3161 7.21538 12.1572 7.10166 13.0021 7.10332C13.8521 7.10332 14.7021 7.21532 15.5021 7.44032C17.4141 6.14032 18.2521 6.41632 18.2521 6.41632C18.8021 7.79132 18.4521 8.81632 18.3521 9.06632C18.9891 9.76632 19.3771 10.6533 19.3771 11.7533C19.3771 15.5913 17.0401 16.4413 14.8151 16.6913C15.1771 17.0033 15.4901 17.6033 15.4901 18.5413C15.4901 19.8783 15.4771 20.9533 15.4771 21.2913C15.4771 21.5533 15.6651 21.8653 16.1651 21.7653C18.1501 21.0951 19.875 19.8193 21.097 18.1175C22.3189 16.4156 22.9765 14.3734 22.9771 12.2783C22.9771 6.75332 18.5021 2.27832 12.9771 2.27832Z"/></g><defs><clipPath id="clip0_2848_534"><rect width="24" height="24" fill="#fff" transform="translate(0.977051 0.27832)"/></clipPath></defs></svg>