<svg xmlns="http://www.w3.org/2000/svg" width="24" height="24" fill="none" viewBox="0 0 24 24"><g clip-path="url(#clip0_2822_184)"><path fill="#607B96" d="M12 13.4999C11.6022 13.4999 11.2206 13.3419 10.9393 13.0606C10.658 12.7793 10.5 12.3978 10.5 11.9999C10.5 11.6021 10.658 11.2206 10.9393 10.9393C11.2206 10.658 11.6022 10.4999 12 10.4999C12.3978 10.4999 12.7794 10.658 13.0607 10.9393C13.342 11.2206 13.5 11.6021 13.5 11.9999C13.5 12.3978 13.342 12.7793 13.0607 13.0606C12.7794 13.3419 12.3978 13.4999 12 13.4999ZM11.472 16.4939C11.647 16.7039 11.823 16.9079 12 17.1029C12.177 16.9079 12.353 16.7049 12.528 16.4939C12.176 16.5014 11.824 16.5014 11.472 16.4939ZM9.477 16.3689C8.70906 16.289 7.9462 16.1662 7.192 16.0009C7.117 16.3509 7.06 16.6909 7.022 17.0169C6.832 18.5999 7.097 19.5619 7.5 19.7939C7.903 20.0269 8.868 19.7749 10.145 18.8199C10.408 18.6229 10.673 18.4039 10.939 18.1649C10.4185 17.594 9.9304 16.9944 9.477 16.3689ZM16.808 16.0009C16.091 16.1609 15.325 16.2849 14.523 16.3689C14.0696 16.9944 13.5815 17.594 13.061 18.1649C13.327 18.4049 13.592 18.6229 13.855 18.8199C15.132 19.7749 16.097 20.0269 16.5 19.7939C16.903 19.5619 17.167 18.5999 16.979 17.0169C16.9377 16.6759 16.881 16.3369 16.809 16.0009H16.808ZM18.258 15.6139C18.835 18.2529 18.532 20.3539 17.25 21.0939C15.968 21.8339 13.997 21.0459 12 19.2269C10.003 21.0459 8.032 21.8329 6.75 21.0929C5.468 20.3529 5.165 18.2529 5.741 15.6129C3.167 14.7939 1.5 13.4799 1.5 11.9999C1.5 10.5199 3.167 9.20693 5.741 8.38593C5.165 5.74693 5.468 3.64593 6.75 2.90593C8.032 2.16593 10.003 2.95393 12 4.77293C13.997 2.95393 15.968 2.16693 17.25 2.90693C18.532 3.64693 18.835 5.74693 18.259 8.38693C20.833 9.20593 22.5 10.5199 22.5 11.9999C22.5 13.4799 20.833 14.7929 18.259 15.6139H18.258ZM10.938 5.83493C10.6837 5.60474 10.4191 5.38618 10.145 5.17993C8.868 4.22493 7.903 3.97293 7.5 4.20593C7.097 4.43793 6.833 5.39993 7.021 6.98293C7.061 7.30993 7.117 7.64893 7.191 7.99893C7.94553 7.83366 8.70872 7.7108 9.477 7.63093C9.952 6.97793 10.442 6.37693 10.939 5.83493H10.938ZM14.523 7.63093C15.325 7.71493 16.091 7.83993 16.808 7.99893C16.883 7.64893 16.94 7.30893 16.978 6.98293C17.168 5.39993 16.903 4.43793 16.5 4.20593C16.097 3.97293 15.132 4.22493 13.855 5.17993C13.5806 5.38616 13.3156 5.60471 13.061 5.83493C13.558 6.37693 14.048 6.97793 14.523 7.63093ZM12.528 7.50593C12.353 7.29593 12.177 7.09193 12 6.89693C11.823 7.09193 11.647 7.29493 11.472 7.50593C11.824 7.49846 12.176 7.49846 12.528 7.50593ZM8.372 14.7039C8.18956 14.403 8.01352 14.0983 7.844 13.7899C7.749 14.0469 7.661 14.2999 7.581 14.5509C7.838 14.6069 8.102 14.6579 8.371 14.7039H8.372ZM10.304 14.9379C11.4331 15.0218 12.5669 15.0218 13.696 14.9379C14.3332 14.0019 14.9001 13.0199 15.392 11.9999C14.9001 10.98 14.3332 9.99798 13.696 9.06193C12.5669 8.97807 11.4331 8.97807 10.304 9.06193C9.6668 9.99798 9.09991 10.98 8.608 11.9999C9.09991 13.0199 9.6668 14.0019 10.304 14.9379ZM16.156 10.2099C16.251 9.95293 16.339 9.69993 16.419 9.44893C16.1568 9.39204 15.8934 9.34103 15.629 9.29593C15.8111 9.59684 15.9868 9.90157 16.156 10.2099ZM6.13 9.83693C5.79 9.94693 5.468 10.0669 5.166 10.1969C3.701 10.8249 3 11.5349 3 11.9999C3 12.4649 3.7 13.1749 5.166 13.8029C5.468 13.9329 5.79 14.0529 6.13 14.1629C6.352 13.4629 6.627 12.7369 6.955 11.9999C6.63982 11.2949 6.36439 10.5728 6.13 9.83693ZM7.58 9.44893C7.661 9.69893 7.749 9.95293 7.844 10.2089C8.01353 9.9009 8.18957 9.5965 8.372 9.29593C8.102 9.34193 7.838 9.39293 7.581 9.44893H7.58ZM17.87 14.1629C18.21 14.0529 18.532 13.9329 18.834 13.8029C20.299 13.1749 21 12.4649 21 11.9999C21 11.5349 20.3 10.8249 18.834 10.1969C18.5183 10.0624 18.1966 9.94231 17.87 9.83693C17.648 10.5369 17.373 11.2629 17.045 11.9999C17.373 12.7369 17.648 13.4619 17.87 14.1629ZM16.42 14.5509C16.339 14.3009 16.251 14.0469 16.156 13.7909C15.9865 14.099 15.8104 14.4034 15.628 14.7039C15.898 14.6579 16.162 14.6069 16.419 14.5509H16.42Z"/></g><defs><clipPath id="clip0_2822_184"><rect width="24" height="24" fill="#fff"/></clipPath></defs></svg>