<svg xmlns="http://www.w3.org/2000/svg" width="24" height="25" fill="none" viewBox="0 0 24 25"><g clip-path="url(#clip0_2844_508)"><path fill="#607B96" d="M22.3832 6.15593C21.6198 6.49362 20.8102 6.7154 19.9812 6.81393C20.855 6.29136 21.509 5.46894 21.8212 4.49993C21.0012 4.98793 20.1022 5.32993 19.1652 5.51493C18.5359 4.84151 17.7016 4.39489 16.7922 4.24451C15.8828 4.09413 14.9492 4.24842 14.1365 4.68338C13.3238 5.11834 12.6776 5.80961 12.2984 6.64972C11.9191 7.48983 11.828 8.43171 12.0392 9.32893C10.3764 9.24558 8.74958 8.81345 7.26453 8.06059C5.77949 7.30773 4.46937 6.25097 3.41924 4.95893C3.04753 5.59738 2.8522 6.32315 2.85324 7.06193C2.85324 8.51193 3.59124 9.79293 4.71324 10.5429C4.04925 10.522 3.39988 10.3427 2.81924 10.0199V10.0719C2.81944 11.0376 3.15361 11.9735 3.76509 12.721C4.37657 13.4684 5.22773 13.9814 6.17424 14.1729C5.55786 14.34 4.91155 14.3646 4.28424 14.2449C4.55111 15.0762 5.07125 15.8031 5.77184 16.324C6.47242 16.8449 7.31837 17.1337 8.19124 17.1499C7.32372 17.8313 6.33042 18.3349 5.26812 18.6321C4.20583 18.9293 3.09537 19.0142 2.00024 18.8819C3.91194 20.1114 6.13734 20.764 8.41024 20.7619C16.1032 20.7619 20.3102 14.3889 20.3102 8.86193C20.3102 8.68193 20.3052 8.49993 20.2972 8.32193C21.1161 7.73009 21.8228 6.99695 22.3842 6.15693L22.3832 6.15593Z"/></g><defs><clipPath id="clip0_2844_508"><rect width="24" height="24" fill="#fff" transform="translate(0 0.5)"/></clipPath></defs></svg>